<svg width="264" height="264" viewBox="0 0 264 264" fill="none" xmlns="http://www.w3.org/2000/svg">
<path d="M264 132.019C263.996 158.125 256.252 183.644 241.745 205.349C227.239 227.054 206.622 243.969 182.502 253.957C158.382 263.945 131.842 266.557 106.238 261.462C80.6339 256.367 57.1152 243.794 38.6564 225.333C20.1976 206.872 7.62768 183.352 2.53554 157.748C-2.55659 132.143 0.0577439 105.603 10.0485 81.4844C20.0392 57.3656 36.9576 36.7508 58.664 22.2469C80.3703 7.74293 105.89 0.000752198 131.996 0C167.007 0.00403306 200.583 13.9151 225.338 38.673C250.093 63.4309 264 97.008 264 132.019Z" fill="#B9D613"/>
<path d="M149.698 1.31169C143.891 0.49149 138.036 0.0546103 132.171 0.00384521C123.936 29.6168 107.143 56.1403 83.8984 76.2508C60.6538 96.3613 31.9911 109.164 1.50163 113.055C0.620664 118.889 0.136775 124.777 0.0531616 130.677L0.748855 130.578C35.6354 126.566 68.5013 112.128 95.0546 89.1473C121.608 66.1672 140.614 35.7138 149.591 1.7642L149.698 1.31169ZM262.695 133.209C231.556 140.864 203.159 157.026 180.676 179.89C158.192 202.753 142.508 231.418 135.376 262.68L135.106 263.87C141.245 263.723 147.366 263.145 153.424 262.141C160.363 235.744 174.076 211.618 193.205 192.15C212.334 172.682 236.216 158.548 262.487 151.146C263.384 145.103 263.877 139.006 263.962 132.897L262.695 133.209Z" fill="#F7F7F7"/>
</svg>
