<svg width="1289" height="264" viewBox="0 0 1289 264" fill="none" xmlns="http://www.w3.org/2000/svg">
<path d="M264 132.019C263.996 158.125 256.252 183.644 241.745 205.349C227.239 227.054 206.622 243.969 182.502 253.957C158.382 263.945 131.842 266.557 106.238 261.462C80.6339 256.367 57.1152 243.794 38.6564 225.333C20.1976 206.872 7.62768 183.352 2.53554 157.748C-2.55659 132.143 0.0577439 105.603 10.0485 81.4844C20.0392 57.3656 36.9576 36.7508 58.664 22.2469C80.3703 7.74293 105.89 0.000752198 131.996 0C167.007 0.00403306 200.583 13.9151 225.338 38.673C250.093 63.4309 264 97.008 264 132.019Z" fill="#B9D613"/>
<path d="M149.698 1.31176C143.891 0.491551 138.036 0.0546713 132.171 0.00390625C123.936 29.6168 107.143 56.1403 83.8984 76.2508C60.6538 96.3614 31.9911 109.164 1.50163 113.055C0.620664 118.889 0.136775 124.777 0.0531616 130.677L0.748855 130.578C35.6354 126.566 68.5013 112.128 95.0546 89.1474C121.608 66.1672 140.614 35.7138 149.591 1.76426L149.698 1.31176ZM262.695 133.209C231.556 140.865 203.159 157.026 180.676 179.89C158.192 202.753 142.508 231.418 135.376 262.681L135.106 263.871C141.245 263.723 147.366 263.145 153.424 262.141C160.363 235.744 174.076 211.618 193.205 192.15C212.334 172.682 236.216 158.548 262.487 151.146C263.384 145.103 263.877 139.006 263.962 132.897L262.695 133.209Z" fill="#F7F7F7"/>
<path d="M374 208.2C365.067 208.2 357.267 206.6 350.6 203.4C344.067 200.067 338.467 195.467 333.8 189.6L354.8 169.4C357.2 172.733 360 175.267 363.2 177C366.533 178.733 370.267 179.6 374.4 179.6C378.4 179.6 381.867 178.8 384.8 177.2C387.733 175.467 390.067 173.067 391.8 170C393.533 166.8 394.4 162.867 394.4 158.2V64.8H426V156.4C426 166.933 423.867 176.067 419.6 183.8C415.333 191.533 409.333 197.533 401.6 201.8C393.867 206.067 384.667 208.2 374 208.2ZM491.445 208.2C482.512 208.2 474.579 206.4 467.645 202.8C460.845 199.067 455.512 194 451.645 187.6C447.779 181.067 445.845 173.6 445.845 165.2V108.8H476.445V164.8C476.445 168.133 476.979 171 478.045 173.4C479.245 175.8 480.979 177.667 483.245 179C485.512 180.333 488.245 181 491.445 181C495.979 181 499.579 179.6 502.245 176.8C504.912 173.867 506.245 169.867 506.245 164.8V108.8H536.845V165C536.845 173.533 534.912 181.067 531.045 187.6C527.179 194 521.845 199.067 515.045 202.8C508.245 206.4 500.379 208.2 491.445 208.2ZM597.258 249.6C586.591 249.6 577.191 247.733 569.058 244C561.058 240.4 554.724 235.267 550.058 228.6L568.858 209.8C572.324 213.933 576.191 217.067 580.458 219.2C584.858 221.333 590.124 222.4 596.258 222.4C603.858 222.4 609.791 220.533 614.058 216.8C618.458 213.067 620.658 207.8 620.658 201V176.2L625.858 155L621.258 133.8V108.8H651.258V200.2C651.258 210.2 648.924 218.867 644.258 226.2C639.591 233.533 633.191 239.267 625.058 243.4C616.924 247.533 607.658 249.6 597.258 249.6ZM595.858 203C586.924 203 578.991 200.867 572.058 196.6C565.124 192.333 559.658 186.533 555.658 179.2C551.658 171.867 549.658 163.733 549.658 154.8C549.658 145.733 551.658 137.6 555.658 130.4C559.658 123.067 565.124 117.333 572.058 113.2C578.991 108.933 586.924 106.8 595.858 106.8C602.524 106.8 608.458 108.067 613.658 110.6C618.991 113 623.258 116.467 626.458 121C629.791 125.4 631.658 130.533 632.058 136.4V173.4C631.658 179.133 629.791 184.267 626.458 188.8C623.258 193.2 618.991 196.667 613.658 199.2C608.324 201.733 602.391 203 595.858 203ZM601.658 175.8C605.924 175.8 609.591 174.867 612.658 173C615.858 171.133 618.258 168.667 619.858 165.6C621.591 162.4 622.458 158.8 622.458 154.8C622.458 150.8 621.591 147.2 619.858 144C618.258 140.8 615.858 138.267 612.658 136.4C609.591 134.533 605.924 133.6 601.658 133.6C597.524 133.6 593.858 134.533 590.658 136.4C587.458 138.267 584.991 140.8 583.258 144C581.524 147.2 580.658 150.8 580.658 154.8C580.658 158.533 581.524 162.067 583.258 165.4C584.991 168.6 587.391 171.133 590.458 173C593.658 174.867 597.391 175.8 601.658 175.8ZM713.455 208C704.521 208 696.521 205.8 689.455 201.4C682.521 197 676.988 191 672.855 183.4C668.855 175.8 666.855 167.133 666.855 157.4C666.855 147.667 668.855 139 672.855 131.4C676.988 123.8 682.521 117.8 689.455 113.4C696.521 109 704.521 106.8 713.455 106.8C719.988 106.8 725.855 108.067 731.055 110.6C736.388 113.133 740.721 116.667 744.055 121.2C747.388 125.6 749.255 130.667 749.655 136.4V178.4C749.255 184.133 747.388 189.267 744.055 193.8C740.855 198.2 736.588 201.667 731.255 204.2C725.921 206.733 719.988 208 713.455 208ZM719.655 180.4C726.188 180.4 731.455 178.267 735.455 174C739.455 169.6 741.455 164.067 741.455 157.4C741.455 152.867 740.521 148.867 738.655 145.4C736.921 141.933 734.388 139.267 731.055 137.4C727.855 135.4 724.121 134.4 719.855 134.4C715.588 134.4 711.788 135.4 708.455 137.4C705.255 139.267 702.655 141.933 700.655 145.4C698.788 148.867 697.855 152.867 697.855 157.4C697.855 161.8 698.788 165.733 700.655 169.2C702.521 172.667 705.121 175.4 708.455 177.4C711.788 179.4 715.521 180.4 719.655 180.4ZM740.255 206V179.8L744.855 156.2L740.255 132.6V108.8H770.255V206H740.255ZM708.255 97.8L698.255 83.2L730.055 53.4L746.855 77L708.255 97.8ZM864.161 206V66.8H895.561V206H864.161ZM819.961 92.2V64.8H939.761V92.2H819.961ZM979.253 208.2C968.72 208.2 959.32 206.067 951.053 201.8C942.92 197.4 936.52 191.333 931.853 183.6C927.186 175.867 924.853 167.133 924.853 157.4C924.853 147.667 927.12 139 931.653 131.4C936.32 123.667 942.586 117.6 950.453 113.2C958.32 108.8 967.186 106.6 977.053 106.6C986.653 106.6 995.12 108.667 1002.45 112.8C1009.79 116.933 1015.52 122.667 1019.65 130C1023.92 137.333 1026.05 145.733 1026.05 155.2C1026.05 156.933 1025.92 158.8 1025.65 160.8C1025.52 162.667 1025.19 164.867 1024.65 167.4L940.853 167.6V146.6L1011.65 146.4L998.453 155.2C998.32 149.6 997.453 145 995.853 141.4C994.253 137.667 991.853 134.867 988.653 133C985.586 131 981.786 130 977.253 130C972.453 130 968.253 131.133 964.653 133.4C961.186 135.533 958.453 138.6 956.453 142.6C954.586 146.6 953.653 151.467 953.653 157.2C953.653 162.933 954.653 167.867 956.653 172C958.786 176 961.72 179.133 965.453 181.4C969.32 183.533 973.853 184.6 979.053 184.6C983.853 184.6 988.186 183.8 992.053 182.2C995.92 180.467 999.32 177.933 1002.25 174.6L1019.05 191.4C1014.25 197 1008.45 201.2 1001.65 204C994.853 206.8 987.386 208.2 979.253 208.2ZM1105.02 206V150.6C1105.02 145.533 1103.42 141.467 1100.22 138.4C1097.16 135.2 1093.22 133.6 1088.42 133.6C1085.09 133.6 1082.16 134.333 1079.62 135.8C1077.09 137.133 1075.09 139.133 1073.62 141.8C1072.16 144.333 1071.42 147.267 1071.42 150.6L1059.62 144.8C1059.62 137.2 1061.29 130.533 1064.62 124.8C1067.96 119.067 1072.56 114.667 1078.42 111.6C1084.42 108.4 1091.16 106.8 1098.62 106.8C1105.82 106.8 1112.16 108.533 1117.62 112C1123.22 115.333 1127.62 119.8 1130.82 125.4C1134.02 131 1135.62 137.133 1135.62 143.8V206H1105.02ZM1040.82 206V108.8H1071.42V206H1040.82ZM1155.28 206V108.8H1185.88V206H1155.28ZM1170.68 95.4C1165.88 95.4 1161.88 93.8 1158.68 90.6C1155.61 87.2667 1154.08 83.2667 1154.08 78.6C1154.08 73.8 1155.61 69.8 1158.68 66.6C1161.88 63.4 1165.88 61.8 1170.68 61.8C1175.48 61.8 1179.41 63.4 1182.48 66.6C1185.54 69.8 1187.08 73.8 1187.08 78.6C1187.08 83.2667 1185.54 87.2667 1182.48 90.6C1179.41 93.8 1175.48 95.4 1170.68 95.4ZM1242.83 208.4C1237.09 208.4 1231.43 207.667 1225.83 206.2C1220.36 204.733 1215.23 202.667 1210.43 200C1205.76 197.2 1201.76 194 1198.43 190.4L1215.83 172.8C1219.03 176.267 1222.83 179 1227.23 181C1231.63 182.867 1236.43 183.8 1241.63 183.8C1245.23 183.8 1247.96 183.267 1249.83 182.2C1251.83 181.133 1252.83 179.667 1252.83 177.8C1252.83 175.4 1251.63 173.6 1249.23 172.4C1246.96 171.067 1244.03 169.933 1240.43 169C1236.83 167.933 1233.03 166.8 1229.03 165.6C1225.02 164.4 1221.23 162.733 1217.63 160.6C1214.03 158.467 1211.09 155.533 1208.83 151.8C1206.56 147.933 1205.43 143.067 1205.43 137.2C1205.43 130.933 1207.03 125.533 1210.23 121C1213.43 116.333 1217.96 112.667 1223.83 110C1229.69 107.333 1236.56 106 1244.43 106C1252.69 106 1260.29 107.467 1267.23 110.4C1274.29 113.2 1280.03 117.4 1284.43 123L1267.03 140.6C1263.96 137 1260.49 134.467 1256.63 133C1252.89 131.533 1249.23 130.8 1245.63 130.8C1242.16 130.8 1239.56 131.333 1237.83 132.4C1236.09 133.333 1235.23 134.733 1235.23 136.6C1235.23 138.6 1236.36 140.2 1238.63 141.4C1240.89 142.6 1243.83 143.667 1247.43 144.6C1251.03 145.533 1254.83 146.667 1258.83 148C1262.83 149.333 1266.63 151.133 1270.23 153.4C1273.83 155.667 1276.76 158.733 1279.03 162.6C1281.29 166.333 1282.43 171.267 1282.43 177.4C1282.43 186.867 1278.83 194.4 1271.63 200C1264.56 205.6 1254.96 208.4 1242.83 208.4Z" fill="white"/>
</svg>
