<svg width="637" height="264" viewBox="0 0 637 264" fill="none" xmlns="http://www.w3.org/2000/svg">
<g class="ball">
<path d="M264 132.019C263.996 158.125 256.252 183.644 241.745 205.349C227.239 227.054 206.622 243.969 182.502 253.957C158.382 263.945 131.842 266.557 106.238 261.462C80.6339 256.367 57.1152 243.794 38.6564 225.333C20.1976 206.872 7.62768 183.352 2.53554 157.748C-2.55659 132.143 0.0577439 105.603 10.0485 81.4844C20.0392 57.3656 36.9576 36.7508 58.664 22.2469C80.3703 7.74293 105.89 0.000752198 131.996 0C167.007 0.00403306 200.583 13.9151 225.338 38.673C250.093 63.4309 264 97.008 264 132.019Z" fill="#B9D613"/>
</g>
<path d="M149.698 1.31169C143.891 0.49149 138.036 0.0546103 132.171 0.00384521C123.936 29.6168 107.143 56.1403 83.8984 76.2508C60.6538 96.3613 31.9911 109.164 1.50163 113.055C0.620664 118.889 0.136775 124.777 0.0531616 130.677L0.748855 130.578C35.6354 126.566 68.5013 112.128 95.0546 89.1473C121.608 66.1672 140.614 35.7138 149.591 1.7642L149.698 1.31169ZM262.695 133.209C231.556 140.864 203.159 157.026 180.676 179.89C158.192 202.753 142.508 231.418 135.376 262.68L135.106 263.87C141.245 263.723 147.366 263.145 153.424 262.141C160.363 235.744 174.076 211.618 193.205 192.15C212.334 172.682 236.216 158.548 262.487 151.146C263.384 145.103 263.877 139.006 263.962 132.897L262.695 133.209Z" fill="#F7F7F7"/>
<path d="M336.1 120.54C329.847 120.54 324.387 119.42 319.72 117.18C315.147 114.847 311.227 111.627 307.96 107.52L322.66 93.38C324.34 95.7133 326.3 97.4867 328.54 98.7C330.873 99.9133 333.487 100.52 336.38 100.52C339.18 100.52 341.607 99.96 343.66 98.84C345.713 97.6267 347.347 95.9467 348.56 93.8C349.773 91.56 350.38 88.8067 350.38 85.54V20.16H372.5V84.28C372.5 91.6533 371.007 98.0467 368.02 103.46C365.033 108.873 360.833 113.073 355.42 116.06C350.007 119.047 343.567 120.54 336.1 120.54ZM418.312 120.54C412.058 120.54 406.505 119.28 401.652 116.76C396.892 114.147 393.158 110.6 390.452 106.12C387.745 101.547 386.392 96.32 386.392 90.44V50.96H407.812V90.16C407.812 92.4933 408.185 94.5 408.932 96.18C409.772 97.86 410.985 99.1667 412.572 100.1C414.158 101.033 416.072 101.5 418.312 101.5C421.485 101.5 424.005 100.52 425.872 98.56C427.738 96.5067 428.672 93.7067 428.672 90.16V50.96H450.092V90.3C450.092 96.2733 448.738 101.547 446.032 106.12C443.325 110.6 439.592 114.147 434.832 116.76C430.072 119.28 424.565 120.54 418.312 120.54ZM492.38 149.52C484.914 149.52 478.334 148.213 472.64 145.6C467.04 143.08 462.607 139.487 459.34 134.82L472.5 121.66C474.927 124.553 477.634 126.747 480.62 128.24C483.7 129.733 487.387 130.48 491.68 130.48C497 130.48 501.154 129.173 504.14 126.56C507.22 123.947 508.76 120.26 508.76 115.5V98.14L512.4 83.3L509.18 68.46V50.96H530.18V114.94C530.18 121.94 528.547 128.007 525.28 133.14C522.014 138.273 517.534 142.287 511.84 145.18C506.147 148.073 499.66 149.52 492.38 149.52ZM491.4 116.9C485.147 116.9 479.594 115.407 474.74 112.42C469.887 109.433 466.06 105.373 463.26 100.24C460.46 95.1067 459.06 89.4133 459.06 83.16C459.06 76.8133 460.46 71.12 463.26 66.08C466.06 60.9467 469.887 56.9333 474.74 54.04C479.594 51.0533 485.147 49.56 491.4 49.56C496.067 49.56 500.22 50.4467 503.86 52.22C507.594 53.9 510.58 56.3267 512.82 59.5C515.154 62.58 516.46 66.1733 516.74 70.28V96.18C516.46 100.193 515.154 103.787 512.82 106.96C510.58 110.04 507.594 112.467 503.86 114.24C500.127 116.013 495.974 116.9 491.4 116.9ZM495.46 97.86C498.447 97.86 501.014 97.2067 503.16 95.9C505.4 94.5933 507.08 92.8667 508.2 90.72C509.414 88.48 510.02 85.96 510.02 83.16C510.02 80.36 509.414 77.84 508.2 75.6C507.08 73.36 505.4 71.5867 503.16 70.28C501.014 68.9733 498.447 68.32 495.46 68.32C492.567 68.32 490 68.9733 487.76 70.28C485.52 71.5867 483.794 73.36 482.58 75.6C481.367 77.84 480.76 80.36 480.76 83.16C480.76 85.7733 481.367 88.2467 482.58 90.58C483.794 92.82 485.474 94.5933 487.62 95.9C489.86 97.2067 492.474 97.86 495.46 97.86ZM573.718 120.4C567.465 120.4 561.865 118.86 556.918 115.78C552.065 112.7 548.192 108.5 545.298 103.18C542.498 97.86 541.098 91.7933 541.098 84.98C541.098 78.1667 542.498 72.1 545.298 66.78C548.192 61.46 552.065 57.26 556.918 54.18C561.865 51.1 567.465 49.56 573.718 49.56C578.292 49.56 582.398 50.4467 586.038 52.22C589.772 53.9933 592.805 56.4667 595.138 59.64C597.472 62.72 598.778 66.2667 599.058 70.28V99.68C598.778 103.693 597.472 107.287 595.138 110.46C592.898 113.54 589.912 115.967 586.178 117.74C582.445 119.513 578.292 120.4 573.718 120.4ZM578.058 101.08C582.632 101.08 586.318 99.5867 589.118 96.6C591.918 93.52 593.318 89.6467 593.318 84.98C593.318 81.8067 592.665 79.0067 591.358 76.58C590.145 74.1533 588.372 72.2867 586.038 70.98C583.798 69.58 581.185 68.88 578.198 68.88C575.212 68.88 572.552 69.58 570.218 70.98C567.978 72.2867 566.158 74.1533 564.758 76.58C563.452 79.0067 562.798 81.8067 562.798 84.98C562.798 88.06 563.452 90.8133 564.758 93.24C566.065 95.6667 567.885 97.58 570.218 98.98C572.552 100.38 575.165 101.08 578.058 101.08ZM592.478 119V100.66L595.698 84.14L592.478 67.62V50.96H613.478V119H592.478ZM570.078 43.26L563.078 33.04L585.338 12.18L597.098 28.7L570.078 43.26ZM339.74 249V151.56H361.72V249H339.74ZM308.8 169.34V150.16H392.66V169.34H308.8ZM420.305 250.54C412.931 250.54 406.351 249.047 400.565 246.06C394.871 242.98 390.391 238.733 387.125 233.32C383.858 227.907 382.225 221.793 382.225 214.98C382.225 208.167 383.811 202.1 386.985 196.78C390.251 191.367 394.638 187.12 400.145 184.04C405.651 180.96 411.858 179.42 418.765 179.42C425.485 179.42 431.411 180.867 436.545 183.76C441.678 186.653 445.691 190.667 448.585 195.8C451.571 200.933 453.065 206.813 453.065 213.44C453.065 214.653 452.971 215.96 452.785 217.36C452.691 218.667 452.458 220.207 452.085 221.98L393.425 222.12V207.42L442.985 207.28L433.745 213.44C433.651 209.52 433.045 206.3 431.925 203.78C430.805 201.167 429.125 199.207 426.885 197.9C424.738 196.5 422.078 195.8 418.905 195.8C415.545 195.8 412.605 196.593 410.085 198.18C407.658 199.673 405.745 201.82 404.345 204.62C403.038 207.42 402.385 210.827 402.385 214.84C402.385 218.853 403.085 222.307 404.485 225.2C405.978 228 408.031 230.193 410.645 231.78C413.351 233.273 416.525 234.02 420.165 234.02C423.525 234.02 426.558 233.46 429.265 232.34C431.971 231.127 434.351 229.353 436.405 227.02L448.165 238.78C444.805 242.7 440.745 245.64 435.985 247.6C431.225 249.56 425.998 250.54 420.305 250.54ZM508.344 249V210.22C508.344 206.673 507.224 203.827 504.984 201.68C502.837 199.44 500.084 198.32 496.724 198.32C494.39 198.32 492.337 198.833 490.564 199.86C488.79 200.793 487.39 202.193 486.364 204.06C485.337 205.833 484.824 207.887 484.824 210.22L476.564 206.16C476.564 200.84 477.73 196.173 480.064 192.16C482.397 188.147 485.617 185.067 489.724 182.92C493.924 180.68 498.637 179.56 503.864 179.56C508.904 179.56 513.337 180.773 517.164 183.2C521.084 185.533 524.164 188.66 526.404 192.58C528.644 196.5 529.764 200.793 529.764 205.46V249H508.344ZM463.404 249V180.96H484.824V249H463.404ZM543.521 249V180.96H564.941V249H543.521ZM554.301 171.58C550.941 171.58 548.141 170.46 545.901 168.22C543.754 165.887 542.681 163.087 542.681 159.82C542.681 156.46 543.754 153.66 545.901 151.42C548.141 149.18 550.941 148.06 554.301 148.06C557.661 148.06 560.414 149.18 562.561 151.42C564.708 153.66 565.781 156.46 565.781 159.82C565.781 163.087 564.708 165.887 562.561 168.22C560.414 170.46 557.661 171.58 554.301 171.58ZM604.805 250.68C600.792 250.68 596.825 250.167 592.905 249.14C589.078 248.113 585.485 246.667 582.125 244.8C578.858 242.84 576.058 240.6 573.725 238.08L585.905 225.76C588.145 228.187 590.805 230.1 593.885 231.5C596.965 232.807 600.325 233.46 603.965 233.46C606.485 233.46 608.398 233.087 609.705 232.34C611.105 231.593 611.805 230.567 611.805 229.26C611.805 227.58 610.965 226.32 609.285 225.48C607.698 224.547 605.645 223.753 603.125 223.1C600.605 222.353 597.945 221.56 595.145 220.72C592.345 219.88 589.685 218.713 587.165 217.22C584.645 215.727 582.592 213.673 581.005 211.06C579.418 208.353 578.625 204.947 578.625 200.84C578.625 196.453 579.745 192.673 581.985 189.5C584.225 186.233 587.398 183.667 591.505 181.8C595.612 179.933 600.418 179 605.925 179C611.712 179 617.032 180.027 621.885 182.08C626.832 184.04 630.845 186.98 633.925 190.9L621.745 203.22C619.598 200.7 617.172 198.927 614.465 197.9C611.852 196.873 609.285 196.36 606.765 196.36C604.338 196.36 602.518 196.733 601.305 197.48C600.092 198.133 599.485 199.113 599.485 200.42C599.485 201.82 600.278 202.94 601.865 203.78C603.452 204.62 605.505 205.367 608.025 206.02C610.545 206.673 613.205 207.467 616.005 208.4C618.805 209.333 621.465 210.593 623.985 212.18C626.505 213.767 628.558 215.913 630.145 218.62C631.732 221.233 632.525 224.687 632.525 228.98C632.525 235.607 630.005 240.88 624.965 244.8C620.018 248.72 613.298 250.68 604.805 250.68Z" fill="white"/>
</svg>
